<?xml version="1.0" encoding="utf-8"?>
<!-- Generator: Adobe Illustrator 22.0.0, SVG Export Plug-In . SVG Version: 6.00 Build 0)  -->
<svg version="1.1" id="图层_1" xmlns="http://www.w3.org/2000/svg" xmlns:xlink="http://www.w3.org/1999/xlink" x="0px" y="0px"
	 viewBox="0 0 631 631" style="enable-background:new 0 0 631 631;" xml:space="preserve">
<style type="text/css">
	.st0{fill:#FF0000;}
	.st1{fill:#009A44;}
</style>
<g>
	<path class="st0" d="M566.1,315.9c0,6.4,0.1,12.7,0,19.1c-0.3,13.3-2.7,26.3-5.5,39.2c-4.2,19.9-11.3,38.8-20.4,56.9
		c-9.7,19.1-21.8,36.7-36.2,52.6c-17.4,19.4-36.9,36.3-59.3,49.6c-20.2,12-41.7,20.9-64.6,26.5c-18.1,4.4-36.4,7-55.1,7
		c-12.9,0-25.9,0.2-38.8-1.3c-10.1-1.2-20.1-3-30.1-5.3c-11.9-2.8-23.5-6.5-34.8-11c-22.5-9-43.3-21.1-62-36.6
		c-28.5-23.6-52.2-51.2-68.7-84.6c-13.4-27.1-21.4-55.8-24.5-85.9c-1.6-15.9-1.8-31.7-0.6-47.5c2.7-35.9,12.2-70.1,30.3-101.4
		c28.5-49.4,68.5-86.4,121-109.1c23-9.9,47-15.6,71.9-18.2c15.5-1.6,31.1-1.9,46.5-0.7c29.7,2.2,58.6,8.7,85.6,21.9
		c66.7,32.4,112.4,83.5,135.2,154.3c4.3,13.4,6.7,27.3,8.8,41.3C566.5,293.6,565.7,304.7,566.1,315.9z M315.5,546.9
		c8.7,0.3,17.3-0.8,25.9-1.8c8.2-1,16.3-2.5,24.3-4.4c39.4-9.3,74.3-27.1,104.6-53.9c25.4-22.5,44.2-49.9,57.5-81
		c17.5-41,24.5-83.6,15.9-127.9c-12.4-64-43.7-116-98.3-152.9c-19.7-13.3-41-23.2-63.6-30.1c-12.5-3.8-25.3-6.6-38.4-8.1
		c-11.2-1.3-22.3-2.3-33.6-1.7c-16.3,0.9-32.4,3.3-48.1,7.4c-29,7.5-55.7,19.9-80.1,37.3c-14.6,10.4-28,22-39.6,35.7
		c-11,13-20.6,27-28.8,41.9c-7.3,13.4-13.1,27.4-17.7,41.9c-2.9,9.3-5.3,18.8-7,28.5c-2.5,14.7-4.5,29.5-3.8,44.5
		c0.8,15.5,2.7,31,6.6,46.1c15.9,61.4,49.1,110.4,103.9,143.7C232.1,534.4,272.3,545.8,315.5,546.9z"/>
	<path class="st1" d="M202.9,295.8c5.4-3.3,9.8-6.7,13.4-11.2c3.1-4,3.7-9,5.6-13.4c4.2-9.9,10.4-17.5,21.6-19.7
		c2.2-0.4,4.4,0.1,6.5,0.2c0.7,0,1.6,0.3,2.1-0.4c0.7-0.8-0.1-1.6-0.5-2.2c-3.3-5.7-6.1-11.6-7.4-18.2c-2.7-13.7,0.7-26.2,8-37.8
		c4.3-6.8,10.2-12.4,13.9-19.5c4.3-8.4,7.3-17.2,8.8-26.6c0.1-0.7,0-1.5,1-2.1c5.2,6.3,9.2,13.2,11.9,21c5.9,17.4,3.7,34.6-0.8,51.7
		c-3.4,12.7-11,22.5-21.1,30.5c-1.6,1.2-2.4,2.2-0.6,3.9c7.9,7.3,12.3,16.7,16.3,26.3c3.1,7.5,5.3,15.3,7.5,23.2
		c0.2,0.9,0.2,2.1,1.4,2.1c1,0,1.1-1.1,1.4-1.8c6.6-12.6,12.3-25.5,16.9-38.9c6.2-18.2,12.3-36.4,18.4-54.7
		c4.1-12.1,8-24.3,11.5-36.6c0.2-0.7,0.6-1.4,0.6-2.1c-0.1-4.8,3.1-5.9,7-6.4c1.7-0.2,2.5,0,2.2,2c-2.1,18.5-5.1,36.9-8.9,55.2
		c-4.3,20.8-9.8,41.3-16.5,61.4c-4.1,12.3-8.7,24.5-13.8,36.4c-3.8,8.8-7.9,17.4-12.1,26.1c-4.8,9.8-10,19.5-14.6,29.4
		c-10.6,22.5-22.1,44.7-34.1,66.5c-4.6,8.4-9.8,16.4-14.7,24.7c-0.7,1.3-1.7,1.6-3.1,1.7c-8.8,0.9-15.9-2.3-21.5-8.9
		c-0.8-0.9-1.6-1.9-2.3-3c-4.5-6.2-4.3-10.9,0.1-17.1c6.6-9.3,13-18.8,19.4-28.3c5.6-8.3,11.1-16.6,16.6-24.9
		c8.1-12.2,15.7-24.8,23.5-37.2c3.7-5.9,7.1-12,10.6-18c1-1.8,1.6-3.5,1.4-5.6c-1.2-11.6-2.2-23.3-5.5-34.5
		c-3.3-10.9-6.9-21.6-12.6-31.5c-0.7-1.2-1.3-3.5-3.1-2.8c-1.6,0.6-0.5,2.6-0.5,4c0.7,12-3.8,21.2-13.5,28.5
		c-10.1,7.6-21.4,9.7-33.6,9.4C207.8,296.3,205.7,296,202.9,295.8z"/>
	<path d="M330.3,400.4c-7.5-8.6-9.1-18.9-11.9-28.8c-1.4-5.1-1.6-10.3-2.2-15.5c-0.5-4.7,1.2-9,2.2-13.5c1.9-8.2,4.4-16.3,8.6-23.6
		c2.4-4.3,6.1-7.4,9.8-10.4c2.1-1.7,4.2-3.4,6.2-5.2c2.2-2.1,2.2-5.3,3.3-7.9c0.3-0.7-0.4-1.3-0.9-1.8c-2.7-2.5-3.7-5.7-3.8-9.2
		c-0.1-2.1,0.1-4.2-0.8-6.1c-0.5-1-0.2-2.1,0.3-3c0.5-1,1-2.1,0.8-3.3c-0.8-7.1,4-11.3,8.8-14.7c5-3.5,11-4,17-1.6
		c2.8,1.1,5.9,1.1,8.8,2.1c6.4,2.3,7.1,8.3,5.4,12.2c-2.8,6.5-3.5,13.2-3.9,20c-0.1,1.4,0,2.4-1.7,2.8c-1.1,0.2-1.5,1.4-2,2.3
		c-0.9,1.5-1.6,3.2-2.6,4.6c-2.8,4.5-3,4.6-8,2.7c-2.3-0.9-3.4,1.1-4.9,1.8c-1.3,0.6-0.4,2.5,0.1,3.7c0.2,0.6,0.8,1.3,1.4,1.6
		c6.8,3.5,12,9.1,18,13.7c3.4,2.6,6.3,5.8,9.1,9c0.7,0.8,1.3,1.7,2,2.4c4.6,4.8,4.6,4.8,10,1c6.3-4.5,11.9-3.6,16.4,2.7
		c1.2,1.6,2.2,3.3,3.2,5c1.4,2.4,2.7,4.8,5.3,6.4c2.3,1.4,3.4,4,3.3,6.4c-0.1,4.1,1.9,7.2,3.7,10.4c6.6,11.5,13.4,22.8,20.1,34.2
		c0.7,1.1,1.4,2.1,2.7,1.3c1.7-1.1,2.9-0.3,3.7,1c1.8,3,4.7,5,7,7.5c3.2,3.5,7.8,5.1,12.3,6.5c1.6,0.5,3.2,0.7,4.8,1.2
		c1.5,0.4,2.7,1.3,3.1,2.7c0.6,2-2.6,7.6-4.6,8.4c-7.8,3.1-15.7,3.3-23.9,1.9c-5-0.8-10.2-0.5-15.3-0.7c-1.6-0.1-3.1-0.2-4.6-0.9
		c-2-0.9-2.3-2-2.2-4.3c0.2-5.5,3.1-10.5,2.6-16.2c-0.1-1.5-0.5-2.6-1.5-3.5c-3-2.8-5.9-5.6-9-8.3c-8.3-7.1-14.2-15.7-16.9-26.3
		c-0.1-0.4-0.2-0.8-0.4-1.2c-0.6-1.2-0.5-3-2.3-3.4c-0.7-0.2-1.1,0.5-1.3,1.1c-0.7,1.7-2.6,3.2-0.9,5.4c0.9,1.2,0.9,2,0.4,3.7
		c-2.6,8.5-10.9,11.9-15.6,18.6c-4.5,6.5-10.3,12-15.8,17.7c-6.5,6.6-14.9,9.8-24.3,7.1c-8.8-2.5-15.7-7.9-20.4-15.9
		c-0.5-0.8-0.7-1.7-0.9-2.6C327.5,399,329.1,400.4,330.3,400.4z M351.3,371.5c0,1.4,0,2.7,0,4.1c0,0.7-0.1,1.5,0.7,1.9
		c0.9,0.5,1.5-0.1,2.2-0.7c4.6-3.8,9.1-7.5,13.7-11.3c5.1-4.2,9.5-9,13.9-13.9c1.1-1.2,1.2-2.3-0.2-3c-6.1-3.1-11.7-7-17.2-11.1
		c-1-0.8-2.1-1-2.8,0.4c-2.4,4.7-5.5,9-6.5,14.4C353.9,358.7,351,364.8,351.3,371.5z"/>
</g>
</svg>
